<?xml version="1.0" encoding="UTF-8" standalone="no"?>
<!DOCTYPE svg PUBLIC "-//W3C//DTD SVG 1.1//EN" "http://www.w3.org/Graphics/SVG/1.1/DTD/svg11.dtd">
<svg width="100%" height="100%" viewBox="0 0 83 82" version="1.1" xmlns="http://www.w3.org/2000/svg" xmlns:xlink="http://www.w3.org/1999/xlink" xml:space="preserve" xmlns:serif="http://www.serif.com/" style="fill-rule:evenodd;clip-rule:evenodd;stroke-linejoin:round;stroke-miterlimit:2;">
    <g id="l1OhduRQVyViKv5u01R1mdM" transform="matrix(0.3,0,0,0.3,0.150657,0.301754)">
        <g>
            <path id="p3Sw9wd1g" d="M133.4,145.6C125.1,142 124.7,130.2 132.7,126.1C137.1,123.9 141.9,124.7 145.6,128.4C151.1,133.9 149.7,142 142.6,145.4C138.5,147.3 137.5,147.3 133.4,145.6ZM143.5,141.5C147.6,137.5 146.8,131 141.8,128.4C135.9,125.4 129.6,129.1 129.6,135.7C129.6,142.9 138.5,146.6 143.5,141.5Z" style="fill:rgb(16,106,76);fill-rule:nonzero;"/>
        </g>
    </g>
    <g id="lvRZ8mVvg0PuktMpUSlVyS" transform="matrix(0.3,0,0,0.3,0.150657,0.301754)">
        <g>
            <path id="popxsH3FV" d="M191.6,251.2C190.6,242.1 191.4,239.8 196.8,237C205.2,232.5 216.3,223.5 225.5,213.8C234.5,204.2 246,187.6 244.5,186.2C244.1,185.8 243.5,186.1 243.3,186.8C241.9,190.8 230.1,206.9 223.9,213.5C212.3,225.7 195,237.8 191,236.5C189.4,236 189,235 189,231.2L189,226.5L197.2,221.1C207.9,213.9 219.3,202.4 226.9,191C230.2,185.8 233,181.3 233,180.8C233,178.6 231.1,180.8 227,187.6C224.5,191.8 219.1,198.8 215,203.3C207.6,211.3 193,223 190.5,223C189.7,223 189,220.9 188.5,217.3C187.9,212 188,211.4 190.1,210C195.4,206.6 204.8,198 209.3,192.4C214.8,185.7 220,177.2 220,175C220,174.2 218.2,176.4 216.1,180C211.2,188.1 204.4,196.1 197.1,202.3C189.8,208.6 188.5,209.3 188.3,207.2C188.2,206.3 187.8,203.5 187.5,201L186.8,196.5L194.2,189C201.2,181.9 208.9,170.6 207.6,169.3C206.9,168.5 207,168.4 203.6,174.2C198.4,183.4 187.4,195.2 187.3,191.7C187.3,191 186.8,188.1 186.1,185.1C185,179.9 185,179.7 187.9,176.4C191.7,172.1 196.4,164.1 195.6,163.3C194.9,162.5 195,162.4 191.6,168.3C190.1,170.9 188.6,173 188.2,173C185.9,172.9 184.9,170.4 183.9,162.6C183,155.3 183.1,152.4 184.5,145.4C186.5,135.4 185.9,128.2 182.3,119.5C179.6,112.8 176.9,91.7 175,62.5C174.4,53.2 173,37.2 172,27C170.9,16.8 170,8 170,7.3C170,5.7 180.9,8.8 191.9,13.4C220.9,25.6 245.6,48.6 259.7,76.4C289.6,135.7 270.9,207.3 215.5,245C208.7,249.6 194.9,257 193.2,257C192.7,257 192,254.4 191.6,251.2Z" style="fill:rgb(71,162,138);fill-rule:nonzero;"/>
        </g>
    </g>
    <g id="l3SSBO6uRfeLsPIZqY4k2vz" transform="matrix(0.3,0,0,0.3,0.150657,0.301754)">
        <g>
            <path id="ps4tGTJI1" d="M125.7,268.3L121.8,267.9L122.4,262.2C122.9,256.2 124.2,247.8 125.9,239.5C126.4,236.8 126.9,232.1 126.9,229.3C127,226.4 127.4,224 127.9,224C128.4,224 129.1,221.4 129.4,218.3C130.6,206.6 132.1,195.3 133.2,188.9L134.3,182.2L141.9,181.8C146.2,181.5 152,180.3 155.3,179C167.5,174.4 179.8,161.8 183.1,150.7C184.6,145.3 186,145.8 186.5,152.1C187.6,164.9 188.2,168.5 189.3,169.2C192.7,171.3 179.7,184.1 168.4,189.7C164.2,191.7 161.3,193.6 161.9,193.8C164.2,194.6 176.1,187.8 181.9,182.4C185.1,179.4 187.9,177 188.2,177C188.4,177 188.7,178.4 188.8,180.2C189,181.9 189.5,183.9 190,184.5C190.5,185.2 190.7,186 190.3,186.4C189.9,186.8 190.2,187.5 191,188.1C192.2,188.9 192,189.5 189.5,191.6C184.5,195.9 175.1,201.8 170.4,203.6C168,204.5 166,205.7 166,206.2C166,208.2 176.4,203.4 184.5,197.6C187.2,195.6 189.8,194 190.1,194C190.4,194 190.5,195.1 190.3,196.4C190,197.8 190.5,200.4 191.4,202.2C193.1,205.5 193.1,205.5 190.3,207.8C188.8,209 183.7,211.9 179.1,214.2C174.4,216.5 171.1,218.5 171.7,218.7C173,219.2 181.9,215.1 187.7,211.6C191.5,209.2 191.8,209.1 191.3,211C191,212.1 191.3,213.7 192,214.5C192.6,215.3 192.9,216.8 192.5,218C192.1,219.1 192.3,220 192.9,220C195.8,220 193.2,222.1 185.3,226C175.2,231 175.5,230.8 176.2,231.6C176.5,231.9 180.5,230.3 185,228L193.2,223.9L192.6,228.3C192,232.3 192.1,232.9 194,233.5C195.1,233.8 196,234.5 196,234.8C196,235.2 192.5,237.3 188.3,239.4C184,241.5 181,243.5 181.7,243.7C182.3,243.9 185.5,242.7 188.8,241.1L194.9,238L195.5,241.1C195.9,242.8 195.7,244.6 195,245.5C194.2,246.5 194.2,247 195,247.5C195.7,247.9 196,249.5 195.8,251C195.5,253.2 195.7,253.6 197.2,253.2C198.2,253 199,253.2 199,253.7C199,256.1 177.5,263.7 162.9,266.5C154.4,268.1 132.6,269.2 125.7,268.3Z" style="fill:rgb(58,163,160);fill-rule:nonzero;"/>
            <path id="pk3EIc0dG" d="M179.7,113.6C174.1,103 163.8,94.8 150.6,90.6C148.2,89.8 147.8,93.4 155.9,39.5C157.1,31.8 158.7,20.7 159.6,14.9L161.2,4.2L166.9,5.6C170,6.3 173.2,7 174,7C175,7.1 175.1,7.3 174.3,7.6C173.6,7.9 173.3,8.7 173.5,9.3C173.7,10 174.1,13.4 174.4,17C174.7,20.6 175.6,30.7 176.4,39.5C177.2,48.3 178.2,59.8 178.5,65C178.9,70.2 179.4,76.1 179.7,78C179.9,79.9 180.3,84.4 180.5,88C180.7,91.6 181.2,96.5 181.6,99C182,101.5 182.3,103.9 182.2,104.3C182.1,104.7 182.4,107.9 183,111.3C183.5,114.7 183.6,117.8 183.2,118.2C182.8,118.6 181.2,116.5 179.7,113.6Z" style="fill:rgb(58,163,160);fill-rule:nonzero;"/>
        </g>
    </g>
    <g id="l6aBnN68WCgnnT9IDfLLMgg" transform="matrix(0.3,0,0,0.3,0.150657,0.301754)">
        <g>
            <path id="pihWNejrc" d="M110.5,266C92.1,262.3 70.8,253.4 70.2,249.3C70,248 70.3,247 70.9,247C71.5,247 72,246.3 72,245.4C72,244.6 73.1,240.4 74.5,236.2C77.1,228.4 77.4,227.5 80.4,220.7C81.3,218.6 82,216.3 82,215.6C82,214.1 86.6,199.5 88,196.5C89.3,193.6 94.9,177.3 96.4,171.7C98.5,164.2 99.2,164.1 105.2,169.5C112.7,176.3 123.3,181.1 132,181.8C138.3,182.2 138.8,182.4 138,184.1C137.4,185 136.8,187.8 136.6,190.2C136.3,192.6 136.1,194.5 136,194.5C135.7,194.5 134.8,202.9 134.9,205.4C134.9,207 134.5,208.9 134,209.5C133.5,210.1 133,214.1 132.9,218.3C132.8,222.8 132.3,226.3 131.6,226.8C131,227.2 130.5,228.6 130.4,230C130.3,234.9 128.9,245.3 128.2,246.9C127.8,247.8 127.4,250.6 127.5,253.2C127.5,255.9 127.1,258 126.5,258C126,258 126.2,258.5 127,259C128.2,259.8 128.2,260 126.5,260.1C125.4,260.1 125.1,260.4 125.7,260.7C126.6,261 126.7,261.7 126,263C125.5,264 125.3,265.6 125.6,266.4C126.4,268.5 122.4,268.4 110.5,266Z" style="fill:rgb(48,163,176);fill-rule:nonzero;"/>
            <path id="p1Fx5awR3C" d="M146.5,89.8C144.3,89.3 138.8,89 134.3,89.3L126,89.8L126,86.6C126.1,84.9 126.7,81.9 127.4,80C130.5,71.8 133.9,62.2 135.3,57.5C136.2,54.8 140.7,41.5 145.3,28C154.6,0.9 153.1,3.2 161.6,4.5L164.7,5L163.4,12.3C162.8,16.2 161.9,22 161.5,25C161.1,28 160,36.1 158.9,43C157.2,53.7 156,62 152.4,86.8C152,89.1 151.5,91 151.1,90.9C150.8,90.8 148.7,90.4 146.5,89.8Z" style="fill:rgb(48,163,176);fill-rule:nonzero;"/>
        </g>
    </g>
    <g id="l49M4MBm4glAXkBCl1HziOX" transform="matrix(0.3,0,0,0.3,0.150657,0.301754)">
        <g>
            <path id="pRTHwsQcG" d="M65.8,248.6C57.8,243.7 45,233.7 39.6,228.1C36.2,224.6 35.8,223.7 36.7,221.8C39.2,216.1 44.3,205.9 47.9,199.4C50,195.5 52,191.1 52.4,189.6C52.7,188.2 53.5,187 54,187C54.6,187 55,186.4 55,185.7C55,184.9 56.3,181.9 58,178.9C59.6,175.9 61,172.8 61,171.9C61,171 62.1,169.1 63.4,167.7C64.7,166.3 66.3,163.5 67,161.5C67.6,159.6 68.6,158 69.1,158C69.6,158 70,156.9 70,155.5C70,154.1 70.3,153 70.8,153C71.2,153 72.5,150.9 73.8,148.3C75,145.6 76.4,142.8 76.9,142C77.4,141.2 79.2,137.5 81,133.8C84,127.6 84.5,127 87.4,127L90.5,127L90.5,135.8C90.5,146.3 92.4,152.5 98.5,161.5C101.3,165.7 102.4,168.2 101.7,168.9C101.2,169.4 100.2,172 99.4,174.7C97.9,180.3 92.3,196.6 91,199.5C89.6,202.5 85,217.1 85,218.6C85,219.3 84.3,221.6 83.4,223.7C80.4,230.5 80.1,231.4 77.5,239.2C76.1,243.4 75,247.6 75,248.4C75,249.3 74.6,250 74.1,250C73.6,250 73,250.6 72.8,251.3C72.6,252.3 70.5,251.5 65.8,248.6Z" style="fill:rgb(39,164,192);fill-rule:nonzero;"/>
            <path id="pqAqYIhHZ" d="M102.3,102.3C99.7,101.4 101,94.6 105.3,86.3C107.6,81.7 117.8,61.7 127.9,41.8C138,21.8 146.7,4.9 147.2,4.3C148.9,2.2 158.7,3.1 157.4,5.1C157.1,5.6 153.8,15.1 150,26.3C146.2,37.4 141.8,50.3 140.1,55C138.4,59.7 137,64.1 137,64.8C137,65.4 135.4,70.2 133.3,75.3C131.3,80.3 129.7,85.7 129.7,87.2C129.7,89.5 129.2,90 125.7,90.5C121.2,91.3 112.4,95.7 107.1,99.9C105.1,101.4 102.9,102.5 102.3,102.3Z" style="fill:rgb(39,164,192);fill-rule:nonzero;"/>
        </g>
    </g>
    <g id="l5MgZmWYzmxXeui1NoKwQ7d" transform="matrix(0.3,0,0,0.3,0.150657,0.301754)">
        <g>
            <path id="p1GnRW04W0" d="M33.9,221.7C24.3,210.5 11,187.8 11,182.6C11,181.4 12.2,179.4 13.5,178.1C14.9,176.8 16,175.3 16,174.7C16,174.2 17.7,171.7 19.8,169.1C21.8,166.6 24.7,162.8 26.1,160.5C27.5,158.3 29.3,155.8 30.1,155C30.9,154.2 33.5,150.6 35.9,147C38.4,143.4 41.6,139.2 43.2,137.6C44.7,135.9 46,134.2 46,133.7C46,132.7 52.6,123.2 54.4,121.5C55,121 57.6,117.4 60.2,113.5C62.7,109.7 66,105.2 67.4,103.5C68.8,101.9 70,100.2 70,99.9C70,99.5 71.3,97.7 73,95.9C74.6,94 76.9,90.8 78.2,88.7C79.5,86.6 82,83 83.8,80.7C85.5,78.4 87.4,76.1 87.8,75.5C88.2,75 90.5,71.6 92.9,68C95.4,64.4 99,59.4 100.9,56.8C102.9,54.2 106.7,49.1 109.3,45.3C125.5,22.4 128.4,18.3 129.9,16.8C132.5,14.1 134,12.1 134,11.6C134,11.3 134.7,10.2 135.4,9.3C136.2,8.3 137.7,6.5 138.7,5.2C140.3,3.2 141.2,2.9 146.2,3.2L152,3.5L150.4,6.5C148.9,9.4 117.2,71.7 108.1,89.6C105,95.9 104.1,98.5 105,99C105.9,99.5 104.8,101.5 101.5,105.6C96,112.3 92.3,119.7 91.4,125.7C90.9,128.9 90.3,130 89,130C87.8,130 86.2,132.2 84,136.8C82.2,140.5 80.4,144.2 79.9,145C79.4,145.8 78,148.6 76.8,151.3C75.5,153.9 74.2,156 73.8,156C73.3,156 73,157.1 73,158.5C73,159.9 72.6,161 72.1,161C71.6,161 70.6,162.6 70,164.5C69.3,166.5 67.7,169.3 66.4,170.7C65.1,172.1 64.3,173.6 64.5,174C64.8,174.5 63.4,177.6 61.5,181C59.6,184.4 58,187.8 58,188.6C58,189.4 57.6,190 57,190C56.5,190 55.7,191.2 55.4,192.6C54.7,195.3 50.2,204.3 46,211.3C44.8,213.3 44.1,215 44.5,215C44.8,215 44.4,215.7 43.6,216.6C42.7,217.4 41.7,219.3 41.4,220.8C41,222.3 40.2,224.3 39.5,225.2C38.5,226.7 37.9,226.3 33.9,221.7Z" style="fill:rgb(30,164,207);fill-rule:nonzero;"/>
        </g>
    </g>
    <g id="l28l0RAJFKJLlxI0tn64UB1" transform="matrix(0.3,0,0,0.3,0.150657,0.301754)">
        <g>
            <path id="p19pRDES2q" d="M11.1,184.3C9,180.2 5.1,165.8 3.5,156.1C0.4,137.8 2.5,111.3 8.2,95.4C8.9,93.4 10.6,91.6 12.7,90.6C14.5,89.7 16.3,88.4 16.6,87.6C16.9,86.8 19,84.9 21.3,83.4C23.6,81.9 26.3,79.6 27.3,78.3C28.3,77 29.7,76 30.4,76C31,76 32.3,75.2 33.1,74.3C34,73.3 36.9,70.7 39.5,68.5C42.2,66.3 45.9,63 47.8,61.3C49.6,59.5 51.6,58 52.2,58C52.8,58 55,56.2 57.2,54C59.4,51.8 61.9,50 62.6,50C63.4,50 64.3,49.3 64.6,48.5C64.9,47.7 66.7,46.1 68.5,45C71.8,42.9 72.7,42.2 84,32.4C87.6,29.3 92.8,25.1 95.5,23C98.3,21 104.1,16.3 108.5,12.6C112.9,8.9 117.6,5.3 119,4.5C121.2,3.4 132.8,2.5 141.8,2.9L145.1,3L141.9,7.8C140.1,10.4 138.3,12.7 137.8,12.8C137.4,13 137,13.6 137,14.1C137,15.1 135.7,16.9 132.6,20C131.5,21.1 131,22 131.5,22C132,22 131.6,22.6 130.7,23.3C129.8,23.9 126.4,28.3 123.1,33C111.9,48.9 107.5,55.1 103.9,59.8C102,62.4 98.4,67.4 95.9,71C93.5,74.6 91.2,78 90.8,78.5C90.4,79.1 88.5,81.4 86.8,83.7C85,86 82.5,89.6 81.2,91.7C79.9,93.8 77.6,97 76,98.9C74.3,100.7 73,102.5 73,102.9C73,103.2 71.8,104.9 70.4,106.5C69,108.2 65.7,112.7 63.2,116.5C60.6,120.4 58,124 57.4,124.5C55.6,126.2 49,135.7 49,136.7C49,137.2 47.7,138.9 46.2,140.6C44.6,142.2 41.4,146.4 38.9,150C36.5,153.6 33.9,157.2 33.1,158C32.3,158.8 30.5,161.3 29.1,163.5C27.7,165.8 24.8,169.6 22.8,172.1C20.7,174.7 19,177.2 19,177.7C19,178.3 17.9,179.8 16.5,181.1C15.2,182.4 14,184.1 14,184.8C14,186.6 12.2,186.3 11.1,184.3Z" style="fill:rgb(22,167,229);fill-rule:nonzero;"/>
        </g>
    </g>
    <g id="l30OJLIBSfr3YiW3aRE2j7B" transform="matrix(0.3,0,0,0.3,0.150657,0.301754)">
        <g>
            <path id="pzus4oHh5" d="M7.2,98.3C7.8,96.2 9.6,91.1 11.2,87C25.4,51.2 56.9,21.8 94.4,9.5C104.2,6.3 123.7,2.4 126,3.2C126.6,3.4 125.1,5 122.7,6.8C120.2,8.5 114.9,12.7 110.9,16.1C106.8,19.5 101.3,24 98.5,26C95.8,28.1 90.6,32.3 87,35.4C75.7,45.2 74.8,45.9 71.5,48C69.7,49.1 67.9,50.7 67.6,51.5C67.3,52.3 66.4,53 65.6,53C64.9,53 62.4,54.8 60.2,57C58,59.2 55.8,61 55.2,61C54.6,61 52.6,62.5 50.8,64.3C48.9,66 45.2,69.3 42.5,71.5C39.9,73.7 37,76.3 36.1,77.3C35.3,78.2 34,79 33.4,79C32.7,79 31.3,80 30.3,81.3C29.3,82.6 26.6,84.9 24.3,86.4C22,87.9 19.9,89.8 19.6,90.6C19.3,91.4 17.5,92.8 15.5,93.7C13.6,94.6 12,95.9 12,96.6C12,97.2 11.1,98 10,98.3C8.9,98.6 8,99.5 8,100.4C8,101.3 7.6,102 7.1,102C6.5,102 6.6,100.4 7.2,98.3Z" style="fill:rgb(49,178,237);fill-rule:nonzero;"/>
        </g>
    </g>
</svg>
