<?xml version="1.0" encoding="UTF-8" standalone="no"?>
<!DOCTYPE svg PUBLIC "-//W3C//DTD SVG 1.1//EN" "http://www.w3.org/Graphics/SVG/1.1/DTD/svg11.dtd">
<svg width="100%" height="100%" viewBox="0 0 112 112" version="1.1" xmlns="http://www.w3.org/2000/svg" xmlns:xlink="http://www.w3.org/1999/xlink" xml:space="preserve" xmlns:serif="http://www.serif.com/" style="fill-rule:evenodd;clip-rule:evenodd;stroke-linejoin:round;stroke-miterlimit:2;">
    <g transform="matrix(1,0,0,1,-449,0)">
        <path d="M505.11,50.754C502.448,50.754 500.308,52.861 500.308,55.445C500.351,58.044 502.511,60.154 505.11,60.136C507.76,60.136 509.912,58.029 509.912,55.445C509.869,52.846 507.709,50.736 505.11,50.754M505.11,58.661C505.095,58.661 505.081,58.661 505.066,58.661C503.296,58.661 501.834,57.215 501.816,55.445C501.816,53.67 503.291,52.229 505.11,52.229C506.929,52.229 508.404,53.67 508.404,55.445C508.404,57.22 506.929,58.661 505.11,58.661" style="fill:rgb(17,137,97);fill-rule:nonzero;"/>
        <path d="M505.11,1.199C474.499,1.199 449.655,25.489 449.655,55.445C449.655,85.402 474.488,109.691 505.11,109.691C535.732,109.691 560.565,85.401 560.565,55.445C560.565,25.488 535.732,1.199 505.11,1.199M485.368,55.445C485.368,44.775 494.208,36.125 505.11,36.125C516.012,36.125 524.852,44.775 524.852,55.445C524.852,66.115 516.012,74.765 505.11,74.765C494.208,74.765 485.368,66.115 485.368,55.445M514.316,78.703C520.491,76.756 525.543,72.25 528.179,66.336L529.199,66.802C526.445,72.984 521.174,77.701 514.726,79.756L514.316,78.703ZM516.312,83.816C523.751,81.237 529.845,75.764 533.204,68.643L534.246,69.12C530.761,76.506 524.452,82.192 516.744,84.892L516.312,83.816ZM518.33,88.962C527.031,85.742 534.168,79.293 538.25,70.962L539.27,71.438C535.071,80.032 527.72,86.688 518.752,90.016L518.33,88.962ZM520.327,94.064C530.302,90.244 538.496,82.827 543.285,73.279L544.305,73.745C539.392,83.553 530.986,91.179 520.748,95.118L520.327,94.064ZM522.734,100.23L522.324,99.177C533.569,94.746 542.815,86.353 548.309,75.587L549.329,76.052C543.708,87.08 534.246,95.682 522.734,100.23" style="fill:rgb(17,137,97);fill-rule:nonzero;"/>
    </g>
</svg>
