<?xml version="1.0" encoding="UTF-8" standalone="no"?>
<!DOCTYPE svg PUBLIC "-//W3C//DTD SVG 1.1//EN" "http://www.w3.org/Graphics/SVG/1.1/DTD/svg11.dtd">
<svg width="100%" height="100%" viewBox="0 0 119 119" version="1.1" xmlns="http://www.w3.org/2000/svg" xmlns:xlink="http://www.w3.org/1999/xlink" xml:space="preserve" xmlns:serif="http://www.serif.com/" style="fill-rule:evenodd;clip-rule:evenodd;stroke-linejoin:round;stroke-miterlimit:2;">
    <g transform="matrix(1,0,0,1,-492,0)">
        <path d="M612.725,6.706L607.955,1.787C607.593,1.418 607.1,1.207 606.583,1.2L497.385,1.2C496.86,1.209 496.403,1.404 496.012,1.787L491.255,6.706L490.818,7.156L490.818,118.8L613.162,118.8L613.162,7.143L612.725,6.706ZM505.849,114.992L494.614,114.992L494.614,10.501L505.849,10.501L505.849,114.992ZM510.693,63.458C510.694,37.195 532.306,15.584 558.569,15.584C568.447,15.584 578.086,18.641 586.159,24.333L566.109,54.295C564.004,52.615 561.389,51.699 558.695,51.699C552.175,51.699 546.81,57.064 546.81,63.584C546.81,66.278 547.726,68.893 549.406,70.998L519.444,91.048C513.729,82.987 510.673,73.339 510.705,63.458M566.659,63.458C566.656,67.894 563.005,71.542 558.569,71.542C554.131,71.542 550.479,67.89 550.479,63.452C550.479,63.45 550.479,63.448 550.479,63.446C550.655,59.136 554.249,55.686 558.562,55.686C562.88,55.686 566.476,59.143 566.646,63.458M558.569,111.334C548.691,111.344 539.05,108.29 530.979,102.595L551.016,72.634C553.126,74.33 555.754,75.255 558.462,75.255C564.982,75.255 570.347,69.89 570.347,63.37C570.347,60.66 569.42,58.029 567.72,55.918L597.694,35.868C603.381,43.938 606.435,53.573 606.435,63.446C606.435,89.706 584.829,111.316 558.569,111.322M496.6,6.718L498.222,5.033L605.76,5.033L607.383,6.706L496.6,6.718Z" style="fill:rgb(35,164,120);fill-rule:nonzero;"/>
    </g>
</svg>
